<svg xmlns="http://www.w3.org/2000/svg" width="24" height="24" viewBox="0 0 24 24"><path fill="#55ce2e" d="M10.852.521a.56.56 0 0 0-.444.247c-.06.081-.095.147-.135.214H6.748c-.755 0-1.439.117-1.973.329c-.267.105-.5.236-.687.412c-.19.178-.344.427-.344.722V3.51c0 .295.153.545.344.724c.187.177.421.305.687.41c.534.212 1.218.329 1.973.329h3.104V7.13H4.967l-.006.006c-.853-.02-1.619.656-1.7 1.531l-.001.004v.017c-.45 3.677-1.118 7.382-1.461 11.1l-.002.012v.004l-.002.029v1.58c.021 1 .696 1.743 1.502 1.885h.002l.023.004l.033.002h17.657c.348-.009.705-.129.992-.375c.292-.251.492-.646.48-1.108v-2.01q0-.015-.002-.029L20.891 8.975q0-.015-.004-.03c-.164-.842-.85-1.7-1.87-1.81l-.013-.002l-.027-.002h-4.61V4.973h3.112c.754 0 1.438-.117 1.972-.328c.266-.106.501-.234.69-.41c.19-.18.343-.43.343-.725V2.445c0-.295-.153-.544-.343-.722a2.1 2.1 0 0 0-.69-.412c-.534-.212-1.218-.329-1.972-.329h-3.532c-.04-.067-.074-.132-.133-.212a.57.57 0 0 0-.447-.249Zm0 .903h2.515c.068 0 .096.028.096.096v12.123c0 .067-.028.095-.096.095h-2.515c-.068 0-.096-.028-.096-.095V7.328h-.002V1.52c0-.066.03-.096.098-.096M4.949 8.035h4.903v.57h-3.52c-.4 0-.751.164-1.002.415a2 2 0 0 0-.496.904l-.004.017l-.002.02l-.97 8.168l-.003.006l-.001.03c-.01.438.122.83.38 1.114c.258.283.616.436.99.477h.008l.028.002l13.9-.053a1.15 1.15 0 0 0 .988-.488c.213-.308.29-.7.274-1.135v-.015l-.002-.03l-1.234-8.244l-.006-.027l-.006-.02l-.002-.004c-.22-.691-.933-1.16-1.695-1.137h-3.11v-.57h4.553c.53.057.988.61 1.08 1.082l1.582 10.746v1.985c.005.207-.052.296-.166.394a.74.74 0 0 1-.428.158H3.443c-.36-.069-.73-.396-.744-1v-1.529c.339-3.67 1.004-7.37 1.457-11.084l-.004.01l.006-.024v-.005l.002-.024v.018l.002-.01a.8.8 0 0 1 .277-.506c.155-.137.352-.217.51-.21m1.383 1.473h3.51l-.977 5.703H6.867a.198.198 0 0 0-.107.363l4.947 3.178c.062.04.141.042.205.006l5.525-3.178c.176-.1.105-.368-.097-.37h-2.076l-.889-5.702h3.129a.9.9 0 0 1 .506.166c.153.103.263.243.295.338l1.213 8.11c.009.299-.057.5-.112.58c-.07.1-.072.106-.217.1h-.011l-13.86.052c-.201-.023-.328-.088-.414-.182c-.088-.097-.15-.229-.146-.48v-.006l.955-8.036v-.002c.058-.21.156-.384.258-.486a.44.44 0 0 1 .361-.154m5.504 8.252q-17.542-26.77 0 0M4.723 19.8a.475.475 0 0 0-.453.46c0 .238.213.459.453.459s.452-.221.453-.46a.475.475 0 0 0-.453-.458m.968 0a.47.47 0 0 0-.45.456a.47.47 0 0 0 .45.45h14.307a.47.47 0 0 0 .453-.452a.47.47 0 0 0-.453-.453z"/></svg>