<svg xmlns="http://www.w3.org/2000/svg" width="640" height="480" viewBox="0 0 32 24">
	<g fill="none">
		<path fill="#fffdf9" fill-rule="evenodd" d="M0 0h32v24H0z" clip-rule="evenodd" stroke-width="0.5" stroke="#5e5e5e" />
		<path fill="#e31d1c" fill-rule="evenodd" d="M0 14.667v2h32v-2zm0 3.666v2h32v-2zm0-11v2h32v-2zM0 22v2h32v-2zm0-11v2h32v-2zM0 0v2h32V0zm0 3.667v2h32v-2z" clip-rule="evenodd" stroke-width="0.5" stroke="" />
		<path fill="#2e42a5" d="M0 0h20v13H0z" stroke-width="0.5" stroke="" />
		<path fill="#fffdf9" fill-rule="evenodd" d="m1.722 2.939l-.726.509l.245-.906l-.645-.574h.843l.282-.74l.331.74h.718l-.564.574l.218.906zm4 0l-.726.509l.245-.906l-.644-.574h.842l.282-.74l.331.74h.718l-.564.574l.218.906zm3.274.509l.726-.51l.702.51l-.218-.906l.564-.574h-.718l-.331-.74l-.282.74h-.842l.644.574zm4.726-.51l-.726.51l.245-.906l-.644-.574h.842l.282-.74l.331.74h.718l-.564.574l.218.906zM.996 7.449l.726-.51l.702.51l-.218-.906l.564-.574h-.718l-.331-.74l-.282.74H.596l.645.574zm4.726-.51l-.726.51l.245-.906l-.644-.574h.842l.282-.74l.331.74h.718l-.564.574l.218.906zm3.274.51l.726-.51l.702.51l-.218-.906l.564-.574h-.718l-.331-.74l-.282.74h-.842l.644.574zm4.726-.51l-.726.51l.245-.906l-.644-.574h.842l.282-.74l.331.74h.718l-.564.574l.218.906zM.996 11.449l.726-.51l.702.51l-.218-.906l.564-.574h-.718l-.331-.74l-.282.74H.596l.645.574zm4.726-.51l-.726.51l.245-.906l-.644-.574h.842l.282-.74l.331.74h.718l-.564.574l.218.906zm3.274.51l.726-.51l.702.51l-.218-.906l.564-.574h-.718l-.331-.74l-.282.74h-.842l.644.574zm4.726-.51l-.726.51l.245-.906l-.644-.574h.842l.282-.74l.331.74h.718l-.564.574l.218.906zm3.274-7.49l.726-.51l.702.51l-.218-.906l.564-.574h-.718l-.331-.74l-.282.74h-.843l.645.574zm.726 3.49l-.726.51l.245-.906l-.645-.574h.843l.282-.74l.331.74h.718l-.564.574l.218.906zm-.726 4.51l.726-.51l.702.51l-.218-.906l.564-.574h-.718l-.331-.74l-.282.74h-.843l.645.574zM3.722 4.938l-.726.51l.245-.906l-.645-.574h.843l.282-.74l.331.74h.718l-.564.574l.218.906zm3.274.51l.726-.51l.702.51l-.218-.906l.564-.574h-.718l-.331-.74l-.282.74h-.843l.645.574zm4.726-.51l-.726.51l.245-.906l-.644-.574h.842l.282-.74l.331.74h.718l-.564.574l.218.906zm-8.726 4.51l.726-.51l.702.51l-.218-.906l.564-.574h-.718l-.331-.74l-.282.74h-.843l.645.574zm4.726-.51l-.726.51l.245-.906l-.644-.574h.842l.282-.74l.331.74h.718l-.564.574l.218.906zm3.274.51l.726-.51l.702.51l-.218-.906l.564-.574h-.718l-.331-.74l-.282.74h-.842l.644.574zm4.726-4.51l-.726.51l.245-.906l-.644-.574h.842l.282-.74l.331.74h.718l-.564.574l.218.906zm-.726 4.51l.726-.51l.702.51l-.218-.906l.564-.574h-.718l-.331-.74l-.282.74h-.842l.644.574z" clip-rule="evenodd" stroke-width="0.5" stroke="#5e5e5e" />
	</g>
</svg>