<svg xmlns="http://www.w3.org/2000/svg" width="16" height="16" viewBox="0 0 16 16">
	<path fill="#1faf38" d="M8 0a8 8 0 1 1-4.075 14.886L.658 15.974a.5.5 0 0 1-.632-.632l1.089-3.266A8 8 0 0 1 8 0M5.214 4.004a.7.7 0 0 0-.526.266C4.508 4.481 4 4.995 4 6.037c0 1.044.705 2.054.804 2.196c.098.138 1.388 2.28 3.363 3.2q.55.255 1.12.446c.472.16.902.139 1.242.085c.379-.06 1.164-.513 1.329-1.01c.163-.493.163-.918.113-1.007c-.049-.088-.18-.142-.378-.25c-.196-.105-1.165-.618-1.345-.687c-.18-.073-.312-.106-.443.105c-.132.213-.507.691-.623.832c-.113.139-.23.159-.425.053c-.198-.105-.831-.33-1.584-1.054c-.585-.561-.98-1.258-1.094-1.469c-.116-.213-.013-.326.085-.433c.09-.094.198-.246.296-.371c.097-.122.132-.21.198-.353c.064-.141.031-.266-.018-.371s-.443-1.152-.607-1.577c-.16-.413-.323-.355-.443-.363c-.114-.005-.245-.005-.376-.005" />
</svg>